<?xml version="1.0" encoding="utf-8"?>
<!-- Generator: Adobe Illustrator 20.1.0, SVG Export Plug-In . SVG Version: 6.00 Build 0)  -->
<svg version="1.1" id="Layer_1" xmlns="http://www.w3.org/2000/svg" xmlns:xlink="http://www.w3.org/1999/xlink" x="0px" y="0px"
	 viewBox="0 0 98 98" style="enable-background:new 0 0 98 98;" xml:space="preserve">
<style type="text/css">
	.st0{fill:#4167B0;}
	.st1{fill:#808080;}
	.st2{fill:#CB9831;}
</style>
<path class="st0" d="M40.7,36.3c-4.2,6.4-7.6,13.2-10.4,20.2c-3.3-6.3-5.5-12.9-6.6-19.7c-0.3-1.6-3.4-1.9-4.2-0.5
	c-4.2,8-8.5,16-10.6,24.6c-0.2-0.4-0.4-0.7-0.6-1c-1.1-1.5-2.2-2.9-3.3-4.4c-0.8-1-2.5,0-1.7,1c1.5,2,2.9,3.9,4.4,5.9
	c0.9,1.2,1.6,2.7,2.9,3.5c0.4,0.3,0.9,0.1,1.2-0.2c1.4-1.1,2.3-2.9,3.5-4.3c1.6-1.7,3.4-3.3,5.3-4.6c1-0.8,0-2.5-1-1.7
	c-1.8,1.3-3.4,2.7-5,4.2c-0.2,0.2-0.4,0.5-0.7,0.7c1.6-5.6,4-10.9,6.7-16.2c1.7,6.6,4.5,12.9,8.2,18.9c0.9,1.5,3.7,1.1,4.2-0.5
	c2.8-8.4,6.7-16.4,11.6-24C46.2,36.1,42.2,34.1,40.7,36.3z"/>
<path class="st1" d="M54.3,61.2C51.2,53.1,48.1,45,45,36.8c-0.4-1-1.6-1.6-2.8-1.4c-1.2,0.3-2,1.4-1.6,2.4
	c3.1,8.1,6.2,16.3,9.3,24.4c0.4,1,1.6,1.6,2.8,1.4C53.8,63.3,54.7,62.2,54.3,61.2z"/>
<path class="st2" d="M88.6,41.4c-0.5-1.1-1-2.9-1.7-4.4c0-0.1,0-0.1-0.1-0.2c-0.4-0.8-0.8-1.5-1.3-2c-0.8-0.7-1.5-0.4-2.3,0.1
	c-2.7,1.9-4.8,3.9-7.9,5.2c-1.2,0.5-0.7,2.4,0.5,1.9c1.5-0.6,2.9-1.3,4.3-2.2c0.5-0.3,1-0.6,1.4-1c-2.4,5.3-4.8,10.6-6.7,16
	c-2.2-5.6-4.5-11.3-6.8-16.9c-0.8-1.9-3.6-1.8-4.4,0c-3.6,7.4-7.8,14.6-12.5,21.5c-1.7,0.5-1.8,2.6-0.5,3.4c1,0.8,2.7,1,3.6-0.3
	c4.2-6,8-12.3,11.4-18.7c2.4,6,4.8,12.1,7.2,18.1c0.7,1.8,3.9,1.9,4.4,0c2.2-7.4,5.3-14.5,8.5-21.6c0.9,2.4,2.4,4.7,3.5,6.9
	c0.5,0.9,1.8,0.4,1.9-0.5C91.3,44.8,89.5,43.2,88.6,41.4z"/>
</svg>
